<?xml version="1.0" encoding="UTF-8" standalone="no"?>
<!-- Created with Inkscape (http://www.inkscape.org/) -->

<svg
   xmlns:svg="http://www.w3.org/2000/svg"
   xmlns="http://www.w3.org/2000/svg"
   version="1.1"
   width="77"
   height="99"
   id="svg3048"
   xml:space="preserve"><defs
     id="defs3052"><clipPath
       id="clipPath3066"><path
         d="M 0,761.445 0,0 l 1988.66,0 0,761.445"
         id="path3068" /></clipPath></defs><g
     transform="matrix(1.25,0,0,-1.25,0,990)"
     id="g3058"><g
       transform="scale(0.1,0.1)"
       id="g3060"><g
         id="g3062"><g
           clip-path="url(#clipPath3066)"
           id="g3064"><path
             d="m 423.457,667.312 c 2.695,2.325 37.008,-33.558 40.742,-37.089 7.426,-7.016 13.489,-21.09 4.449,-34.43 -9.73,-14.406 -16.382,-30.742 -27.968,-43.93 -28.828,-32.898 -29.625,-27.761 -53.246,19.727 -6.45,13 -24.465,20.73 -16.223,35.34 4.449,7.117 43.699,54.363 52.246,60.382"
             id="path3070"
             style="fill:#2768b0;fill-opacity:1;fill-rule:nonzero;stroke:none" /><path
             d="m 423.457,667.312 c 2.695,2.325 37.008,-33.558 40.742,-37.089 7.426,-7.016 13.489,-21.09 4.449,-34.43 -9.73,-14.406 -16.382,-30.742 -27.968,-43.93 -28.828,-32.898 -29.625,-27.761 -53.246,19.727 -6.45,13 -24.465,20.73 -16.223,35.34 4.449,7.117 43.699,54.363 52.246,60.382"
             id="path3072"
             style="fill:none;stroke:#2768b0;stroke-width:10.16520023;stroke-linecap:butt;stroke-linejoin:miter;stroke-miterlimit:4;stroke-opacity:1;stroke-dasharray:none" /><path
             d="m 365.785,754.938 c 11.426,8.011 20.215,-20.016 23.5,-27.848 8.735,-20.754 53.637,-5.836 7.711,-51.758 -12.684,-12.652 -51.918,-59.98 -76.93,-59.98 -18.828,0 3.411,55.531 -4.402,71.382 -7.527,15.2 -22.644,9.262 -0.57,27.786 19.886,16.691 35.004,29.394 50.691,40.418"
             id="path3074"
             style="fill:#2768b0;fill-opacity:1;fill-rule:nonzero;stroke:none" /><path
             d="m 365.785,754.938 c 11.426,8.011 20.215,-20.016 23.5,-27.848 8.735,-20.754 53.637,-5.836 7.711,-51.758 -12.684,-12.652 -51.918,-59.98 -76.93,-59.98 -18.828,0 3.411,55.531 -4.402,71.382 -7.527,15.2 -22.644,9.262 -0.57,27.786 19.886,16.691 35.004,29.394 50.691,40.418 z"
             id="path3076"
             style="fill:none;stroke:#2768b0;stroke-width:10.16520023;stroke-linecap:butt;stroke-linejoin:miter;stroke-miterlimit:4;stroke-opacity:1;stroke-dasharray:none" /><path
             d="m 276.148,683.062 c 11.688,10.422 23.829,-15.222 16.727,-41.453 -5.449,-20.031 4.242,-35.214 -13.445,-50.285 -9.668,-8.269 -26.809,39.067 -30.481,45.754 -11.793,21.238 -3.59,18.484 27.199,45.984"
             id="path3078"
             style="fill:#2768b0;fill-opacity:1;fill-rule:nonzero;stroke:none" /><path
             d="m 276.148,683.062 c 11.688,10.422 23.829,-15.222 16.727,-41.453 -5.449,-20.031 4.242,-35.214 -13.445,-50.285 -9.668,-8.269 -26.809,39.067 -30.481,45.754 -11.793,21.238 -3.59,18.484 27.199,45.984 z"
             id="path3080"
             style="fill:none;stroke:#2768b0;stroke-width:10.16520023;stroke-linecap:butt;stroke-linejoin:miter;stroke-miterlimit:4;stroke-opacity:1;stroke-dasharray:none" /><path
             d="m 265.172,520.676 c -0.488,26.148 51.14,82.312 77.254,57.629 9.469,-8.953 21.113,-18.383 31.867,-41.207 14.16,-30.008 17.832,-37.801 -1.078,-63.067 -16.363,-21.785 -31.766,-44.285 -46.863,-66.953 -0.532,-1.973 -20.399,15.188 -21.364,16.074 -30.168,28.098 -39.043,55.84 -39.816,97.524"
             id="path3082"
             style="fill:#2768b0;fill-opacity:1;fill-rule:nonzero;stroke:none" /><path
             d="m 265.172,520.676 c -0.488,26.148 51.14,82.312 77.254,57.629 9.469,-8.953 21.113,-18.383 31.867,-41.207 14.16,-30.008 17.832,-37.801 -1.078,-63.067 -16.363,-21.785 -31.766,-44.285 -46.863,-66.953 -0.532,-1.973 -20.399,15.188 -21.364,16.074 -30.168,28.098 -39.043,55.84 -39.816,97.524"
             id="path3084"
             style="fill:none;stroke:#2768b0;stroke-width:10.16520023;stroke-linecap:butt;stroke-linejoin:miter;stroke-miterlimit:4;stroke-opacity:1;stroke-dasharray:none" /><path
             d="m 216.926,633.492 c 8.363,9.258 20.109,-27.32 21.886,-31.441 9.567,-21.871 8.61,-70.156 -28.746,-62.383 -11.281,2.324 -81.152,17.949 -62.238,34.676 22.234,19.707 44.695,38.273 69.098,59.148"
             id="path3086"
             style="fill:#2768b0;fill-opacity:1;fill-rule:nonzero;stroke:none" /><path
             d="m 216.926,633.492 c 8.363,9.258 20.109,-27.32 21.886,-31.441 9.567,-21.871 8.61,-70.156 -28.746,-62.383 -11.281,2.324 -81.152,17.949 -62.238,34.676 22.234,19.707 44.695,38.273 69.098,59.148"
             id="path3088"
             style="fill:none;stroke:#2768b0;stroke-width:10.16520023;stroke-linecap:butt;stroke-linejoin:miter;stroke-miterlimit:4;stroke-opacity:1;stroke-dasharray:none" /><path
             d="m 114.391,544.09 c 11.875,11.875 12.242,-13.32 74.093,-24.988 26.868,-5.079 24.969,-9.629 34.375,-33.196 7.977,-19.949 -36.187,-63.523 -47.921,-80.293 -4.958,-7.117 -11.872,-23.054 -24.176,-16.504 -14.668,7.793 -29.641,-3.972 -44.024,2.735 -9.9763,4.59 3.02,147.621 7.653,152.246"
             id="path3090"
             style="fill:#2768b0;fill-opacity:1;fill-rule:nonzero;stroke:none" /><path
             d="m 114.391,544.09 c 11.875,11.875 12.242,-13.32 74.093,-24.988 26.868,-5.079 24.969,-9.629 34.375,-33.196 7.977,-19.949 -36.187,-63.523 -47.921,-80.293 -4.958,-7.117 -11.872,-23.054 -24.176,-16.504 -14.668,7.793 -29.641,-3.972 -44.024,2.735 -9.9763,4.59 3.02,147.621 7.653,152.246 z"
             id="path3092"
             style="fill:none;stroke:#2768b0;stroke-width:10.16520023;stroke-linecap:butt;stroke-linejoin:miter;stroke-miterlimit:4;stroke-opacity:1;stroke-dasharray:none" /><path
             d="m 254.379,444.297 c 17.152,-34.317 29.824,-41.133 53.324,-57.395 -27.312,-43.601 -33.269,-63.101 -75.297,-98.679 -2.715,38.554 -39.984,58.425 -36.414,76.425 5.508,39.168 36.11,62.325 46.27,83.809 8.605,19.988 9.832,-0.332 12.117,-4.16"
             id="path3094"
             style="fill:#2768b0;fill-opacity:1;fill-rule:nonzero;stroke:none" /><path
             d="m 254.379,444.297 c 17.152,-34.317 29.824,-41.133 53.324,-57.395 -27.312,-43.601 -33.269,-63.101 -75.297,-98.679 -2.715,38.554 -39.984,58.425 -36.414,76.425 5.508,39.168 36.11,62.325 46.27,83.809 8.605,19.988 9.832,-0.332 12.117,-4.16 z"
             id="path3096"
             style="fill:none;stroke:#2768b0;stroke-width:10.16520023;stroke-linecap:butt;stroke-linejoin:miter;stroke-miterlimit:4;stroke-opacity:1;stroke-dasharray:none" /><path
             d="m 67.1172,335.754 c 7.7773,29.246 44.6018,32.996 72.9768,27 12.242,-2.617 31.414,-19.531 36.883,-28.965 9.894,-17.168 30.582,-30.109 34.195,-48.879 9.281,-48.348 -38.438,-63.73 -76.402,-62.305 -9,0.372 -17.422,1.633 -24.442,3.633 -44.5741,12.852 -53.203,71.895 -43.2108,109.516"
             id="path3098"
             style="fill:#2768b0;fill-opacity:1;fill-rule:nonzero;stroke:none" /><path
             d="m 67.1172,335.754 c 7.7773,29.246 44.6018,32.996 72.9768,27 12.242,-2.617 31.414,-19.531 36.883,-28.965 9.894,-17.168 30.582,-30.109 34.195,-48.879 9.281,-48.348 -38.438,-63.73 -76.402,-62.305 -9,0.372 -17.422,1.633 -24.442,3.633 -44.5741,12.852 -53.203,71.895 -43.2108,109.516 z"
             id="path3100"
             style="fill:none;stroke:#2768b0;stroke-width:10.16520023;stroke-linecap:butt;stroke-linejoin:miter;stroke-miterlimit:4;stroke-opacity:1;stroke-dasharray:none" /><path
             d="M 84.1562,522.59 C 28.4609,472.383 5.08203,468.465 5.08203,427.551 c 0,-20.961 0.125,-81.723 35.25387,-74.457 31.1094,6.449 35.3711,40.48 38.6563,66.633 1.4726,11.55 5.2851,103.007 5.164,102.863"
             id="path3102"
             style="fill:#2768b0;fill-opacity:1;fill-rule:nonzero;stroke:none" /><path
             d="M 84.1562,522.59 C 28.4609,472.383 5.08203,468.465 5.08203,427.551 c 0,-20.961 0.125,-81.723 35.25387,-74.457 31.1094,6.449 35.3711,40.48 38.6563,66.633 1.4726,11.55 5.2851,103.007 5.164,102.863 z"
             id="path3104"
             style="fill:none;stroke:#2768b0;stroke-width:10.16520023;stroke-linecap:butt;stroke-linejoin:miter;stroke-miterlimit:4;stroke-opacity:1;stroke-dasharray:none" /><path
             d="m 5.08203,426.133 0.34766,310.605 c 0,10.809 8.93361,19.559 19.91411,19.559 l 345.6682,0"
             id="path3106"
             style="fill:none;stroke:#2768b0;stroke-width:10.16520023;stroke-linecap:butt;stroke-linejoin:miter;stroke-miterlimit:4;stroke-opacity:1;stroke-dasharray:none" /><path
             d="m 473.191,608.23 0,-366.199 c 0,-10.73 -8.91,-19.426 -19.906,-19.426 l -322.84,0"
             id="path3108"
             style="fill:none;stroke:#2768b0;stroke-width:10.16520023;stroke-linecap:butt;stroke-linejoin:miter;stroke-miterlimit:4;stroke-opacity:1;stroke-dasharray:none" /><path
             d="m 5.71094,340.449 c 3.69922,-0.898 20.01566,-8.086 24.13676,-9.551 5.4882,-1.964 10.6875,-5.753 12.0742,-14.121 4.9648,-29.902 -3.8321,-69.16 29.5429,-94.172 l -46,0 c -10.9765,0 -19.85542,8.899 -19.85542,19.875 l 0.10156,97.969"
             id="path3110"
             style="fill:#2768b0;fill-opacity:1;fill-rule:nonzero;stroke:none" /><path
             d="m 5.71094,340.449 c 3.69922,-0.898 20.01566,-8.086 24.13676,-9.551 5.4882,-1.964 10.6875,-5.753 12.0742,-14.121 4.9648,-29.902 -3.8321,-69.16 29.5429,-94.172 l -46,0 c -10.9765,0 -19.85542,8.899 -19.85542,19.875 l 0.10156,97.969 z"
             id="path3112"
             style="fill:none;stroke:#2768b0;stroke-width:10.16520023;stroke-linecap:butt;stroke-linejoin:miter;stroke-miterlimit:4;stroke-opacity:1;stroke-dasharray:none" /><path
             d="m 1044.61,387.91 c -64.215,1.336 -137.145,-10.019 -137.145,-72.93 0,-38.8 25.422,-56.222 54.855,-56.222 42.82,0 70.26,26.769 79.63,54.18 1.99,6.046 2.66,12.738 2.66,18.773 l 0,56.199 z m 57.55,-87.656 c 0,-28.066 1.33,-55.527 4.7,-77.609 l -52.88,0 -5.34,40.812 -2,0 c -17.41,-25.422 -52.886,-48.156 -99.046,-48.156 -65.547,0 -99.024,46.152 -99.024,93.027 0,78.254 69.61,121.098 194.7,120.383 l 0,6.727 c 0,26.75 -7.35,75.609 -73.586,74.933 -30.782,0 -62.219,-8.73 -84.961,-24.094 l -13.391,39.453 c 26.75,16.75 66.223,28.098 107.043,28.098 99.695,0 123.785,-67.551 123.785,-132.512 l 0,-121.062"
             id="path3114"
             style="fill:#211d1e;fill-opacity:1;fill-rule:nonzero;stroke:none" /><path
             d="m 1133.12,445.461 c 0,38.125 -0.7,70.926 -2.71,101.043 l 51.5,0 2.71,-63.574 1.99,0 c 14.74,43.476 50.88,70.898 90.33,70.898 6.01,0 7.67,0.039 13.06,-1.308 l 6.48,-55.579 c -6.71,0.696 -16.19,1.368 -24.21,1.368 -41.47,0 -70.92,-31.473 -78.97,-74.911 -1.33,-8.73 -2.03,-18.066 -2.03,-28.125 l 0,-172.628 -58.85,0 0.7,222.816"
             id="path3116"
             style="fill:#211d1e;fill-opacity:1;fill-rule:nonzero;stroke:none" /><path
             d="m 1485.66,387.91 c -64.18,1.336 -137.11,-10.019 -137.11,-72.93 0,-38.8 25.37,-56.222 54.85,-56.222 42.85,0 70.25,26.769 79.62,54.18 2.02,6.046 2.64,12.738 2.64,18.773 l 0,56.199 z m 57.57,-87.656 c 0,-28.066 1.35,-55.527 4.71,-77.609 l -52.88,0 -5.36,40.812 -1.96,0 c -17.42,-25.422 -52.9,-48.156 -99.04,-48.156 -65.57,0 -99.03,46.152 -99.03,93.027 0,78.254 69.54,121.098 194.7,120.383 l 0,6.727 c 0,26.75 -7.38,75.609 -73.62,74.933 -30.78,0 -64.08,-10.605 -86.85,-25.988 l -6.39,44.457 c 26.75,16.726 61.17,24.988 101.91,24.988 99.7,0 123.81,-67.551 123.81,-132.512 l 0,-121.062"
             id="path3118"
             style="fill:#211d1e;fill-opacity:1;fill-rule:nonzero;stroke:none" /><path
             d="m 1603.33,222.645 0,278.996 -44.8,0 0,44.863 44.8,0 0,15.379 c 0,45.469 10.69,86.969 38.13,113.058 22.09,21.422 51.53,30.114 78.3,30.114 21.42,0 38.84,-4.696 50.21,-9.364 l -7.44,-45.496 c -9.31,4 -20.7,7.344 -38.06,7.344 -49.55,0 -62.91,-44.144 -62.91,-93.652 l 0,-17.383 84.11,0 -7.25,-44.863 -76.19,0 0,-278.996 -58.9,0"
             id="path3120"
             style="fill:#211d1e;fill-opacity:1;fill-rule:nonzero;stroke:none" /><path
             d="m 1926.44,384.434 c -64.23,1.308 -137.18,-10.079 -137.18,-72.961 0,-38.797 25.44,-56.18 54.86,-56.18 42.84,0 70.28,26.766 79.64,54.18 1.98,6.043 2.68,12.695 2.68,18.73 l 0,56.231 z m 57.53,-87.688 c 0,-28.113 1.34,-55.535 4.69,-77.605 l -52.86,0 -5.33,40.8 -2.04,0 c -17.4,-25.421 -52.81,-48.183 -98.98,-48.183 -65.59,0 -99.04,46.23 -99.04,92.988 0,78.32 69.59,121.141 194.72,120.469 l 0,6.68 c 0,26.777 -7.36,75.625 -73.6,74.949 -30.79,0 -66.82,-12.364 -89.58,-27.774 l 8.6,53.106 c 26.81,16.73 48.84,18.156 89.69,18.156 99.66,0 123.73,-67.559 123.73,-132.461 l 0,-121.125"
             id="path3122"
             style="fill:#211d1e;fill-opacity:1;fill-rule:nonzero;stroke:none" /><path
             d="m 839.977,266.18 c 8.984,-21.582 21.953,-35.489 32.07,-43.614 l 0,0.039 -294.277,0 0,30.52 223.691,327.176 0,1.816 -204.551,0 -13.39,43.66 285.527,0 0,-31.699 -222.488,-325.973 0,-1.835 193.035,0 0.383,-0.09"
             id="path3124"
             style="fill:#211d1e;fill-opacity:1;fill-rule:nonzero;stroke:none" /><path
             d="m 52.1055,42.0039 c 21.5625,0 33.7422,19.832 33.7422,43.7188 0,20.9253 -10.9375,42.8003 -33.5782,42.8003 -22.6445,0 -33.8867,-21.093 -33.8867,-43.9058 0,-22.1563 12.1797,-42.6133 33.582,-42.6133 l 0.1407,0 z M 51.4922,30.9258 c -27.9492,0 -47.30861,21.543 -47.30861,53.3906 0,33.4176 20.60551,55.2816 48.71871,55.2816 28.8829,0 47.4727,-22.008 47.4727,-53.2582 0,-36.0781 -22.0352,-55.414 -48.7188,-55.414 l -0.164,0"
             id="path3126"
             style="fill:#231f20;fill-opacity:1;fill-rule:nonzero;stroke:none" /><path
             d="m 183.609,53.2422 c 0,-7.8125 0.161,-14.6875 0.61,-20.6055 l -12.18,0 -0.773,12.3242 -0.305,0 c -3.445,-6.0742 -11.566,-14.0351 -24.988,-14.0351 -11.875,0 -26.075,6.6914 -26.075,33.0859 l 0,44.1913 13.731,0 0,-41.6991 c 0,-14.3672 4.523,-24.1992 16.867,-24.1992 9.227,0 15.625,6.4062 18.117,12.6562 0.778,1.875 1.246,4.3633 1.246,7.0118 l 0,46.2303 13.75,0 0,-54.9608"
             id="path3128"
             style="fill:#231f20;fill-opacity:1;fill-rule:nonzero;stroke:none" /><path
             d="m 225.758,126.316 0,-18.113 19.687,0 0,-10.4491 -19.687,0 0,-40.75 c 0,-9.3867 2.648,-14.6992 10.301,-14.6992 3.753,0 5.937,0.332 7.972,0.9492 l 0.617,-10.4727 c -2.652,-0.9374 -6.855,-1.8554 -12.183,-1.8554 -6.403,0 -11.543,2.1601 -14.828,5.7539 -3.754,4.2187 -5.301,10.9375 -5.301,19.8242 l 0,41.25 -11.715,0 0,10.4491 11.715,0 0,13.914 13.422,4.199"
             id="path3130"
             style="fill:#231f20;fill-opacity:1;fill-rule:nonzero;stroke:none" /><path
             d="m 263.699,32.6367 13.7344,0 0,110.859 -13.7344,0 0,-110.859 z"
             id="path3132"
             style="fill:#231f20;fill-opacity:1;fill-rule:nonzero;stroke:none" /><path
             d="m 334.285,41.2109 c 13.121,0 22.949,12.3438 22.949,29.5118 0,12.8125 -6.398,28.914 -22.64,28.914 -16.078,0 -23.114,-15.0195 -23.114,-29.3828 0,-16.543 9.364,-29.043 22.645,-29.043 l 0.16,0 z m -0.469,-10.2851 c -20.296,0 -36.226,14.9726 -36.226,38.8789 0,25.3008 16.707,40.1173 37.472,40.1173 21.708,0 36.376,-15.7501 36.376,-38.7228 0,-28.1133 -19.504,-40.2734 -37.477,-40.2734 l -0.145,0"
             id="path3134"
             style="fill:#231f20;fill-opacity:1;fill-rule:nonzero;stroke:none" /><path
             d="m 422.988,41.2109 c 13.121,0 22.953,12.3438 22.953,29.5118 0,12.8125 -6.406,28.914 -22.644,28.914 -16.074,0 -23.117,-15.0195 -23.117,-29.3828 0,-16.543 9.367,-29.043 22.648,-29.043 l 0.16,0 z M 422.52,30.9258 c -20.297,0 -36.231,14.9726 -36.231,38.8789 0,25.3008 16.707,40.1173 37.477,40.1173 21.707,0 36.375,-15.7501 36.375,-38.7228 0,-28.1133 -19.504,-40.2734 -37.481,-40.2734 l -0.14,0"
             id="path3136"
             style="fill:#231f20;fill-opacity:1;fill-rule:nonzero;stroke:none" /><path
             d="m 494.023,73.5469 0.329,0 c 1.875,2.6445 4.363,6.0898 6.546,8.582 l 22.34,26.0741 16.407,0 -29.219,-31.0741 33.269,-44.4922 -16.726,0 -25.907,36.375 -7.039,-7.9765 0,-28.3985 -13.73,0 0,110.8593 13.73,0 0,-69.9491"
             id="path3138"
             style="fill:#231f20;fill-opacity:1;fill-rule:nonzero;stroke:none" /><path
             d="m 590.375,46.5312 c 4.23,-2.5078 11.406,-5.3203 18.262,-5.3203 9.855,0 14.523,4.8516 14.523,11.2579 0,6.5429 -3.898,10.1367 -13.887,13.8867 -13.73,5 -20.136,12.3437 -20.136,21.4062 0,12.1602 9.988,22.1603 26.062,22.1603 7.656,0 14.367,-2.024 18.43,-4.68 l -3.281,-9.8514 c -2.961,1.7383 -8.43,4.3828 -15.45,4.3828 -8.117,0 -12.5,-4.6679 -12.5,-10.3007 0,-6.4063 4.383,-9.2188 14.219,-12.9688 12.949,-4.832 19.824,-11.3867 19.824,-22.793 0,-13.4375 -10.468,-22.7851 -28.117,-22.7851 -8.262,0 -15.926,2.1601 -21.23,5.3047 l 3.281,10.3007"
             id="path3140"
             style="fill:#231f20;fill-opacity:1;fill-rule:nonzero;stroke:none" /><path
             d="m 656.898,143.496 13.731,0 0,-47.1679 0.332,0 c 2.18,3.9139 5.605,7.5119 9.836,9.6879 4.051,2.507 8.887,3.906 14.051,3.906 10.136,0 26.379,-6.25 26.379,-32.3243 l 0,-44.961 -13.731,0 0,43.418 c 0,12.3125 -4.531,22.4805 -17.48,22.4805 -8.918,0 -15.793,-6.2383 -18.45,-13.75 -0.769,-1.875 -0.937,-3.8985 -0.937,-6.5704 l 0,-45.5781 -13.731,0 0,110.8593"
             id="path3142"
             style="fill:#231f20;fill-opacity:1;fill-rule:nonzero;stroke:none" /><path
             d="m 786.207,71.1992 c -15,0.3242 -32.031,-2.332 -32.031,-17.0195 0,-9.0508 5.937,-13.1172 12.812,-13.1172 9.989,0 16.395,6.2422 18.582,12.6484 0.469,1.4063 0.637,2.961 0.637,4.3633 l 0,13.125 z m 13.418,-20.4453 c 0,-6.5664 0.313,-12.9727 1.102,-18.1172 l -12.344,0 -1.238,9.5117 -0.469,0 c -4.063,-5.9179 -12.344,-11.2226 -23.117,-11.2226 -15.301,0 -23.114,10.7734 -23.114,21.7109 0,18.25 16.239,28.25 45.43,28.086 l 0,1.5742 c 0,6.2383 -1.711,17.625 -17.18,17.4765 -7.175,0 -14.519,-2.0195 -19.824,-5.6015 l -3.125,9.1951 c 6.242,3.899 15.469,6.555 24.992,6.555 23.262,0 28.887,-15.7501 28.887,-30.9103 l 0,-28.2578"
             id="path3144"
             style="fill:#231f20;fill-opacity:1;fill-rule:nonzero;stroke:none" /><path
             d="m 824.594,84.6172 c 0,8.918 -0.137,16.5628 -0.606,23.5858 l 12.012,0 0.637,-14.8358 0.468,0 c 3.426,10.1488 11.875,16.5548 21.075,16.5548 1.406,0 2.508,-0.149 3.75,-0.449 l 0,-12.8128 c -1.575,0.1562 -2.981,0.3046 -4.836,0.3046 -9.688,0 -16.563,-7.3281 -18.438,-17.4843 -0.312,-2.0391 -0.476,-4.2266 -0.476,-6.5703 l 0,-40.2735 -13.723,0 0.137,51.9805"
             id="path3146"
             style="fill:#231f20;fill-opacity:1;fill-rule:nonzero;stroke:none" /><path
             d="m 878.961,32.6367 0,75.5663 13.73,0 0,-75.5663 -13.73,0 z m 6.551,89.4803 c -5.137,0 -8.582,4.035 -8.582,8.899 0,4.832 3.582,8.73 8.906,8.73 5.312,0 8.738,-3.898 8.738,-8.73 0,-4.864 -3.426,-8.899 -8.894,-8.899 l -0.168,0"
             id="path3148"
             style="fill:#231f20;fill-opacity:1;fill-rule:nonzero;stroke:none" /><path
             d="m 918.316,87.7617 c 0,7.961 -0.168,14.2033 -0.636,20.4413 l 12.187,0 0.774,-12.3241 0.32,0 c 3.762,7.0191 12.492,14.0431 24.992,14.0431 10.449,0 26.688,-6.25 26.688,-32.1603 l 0,-45.125 -13.731,0 0,43.5547 c 0,12.1758 -4.531,22.5078 -17.48,22.5078 -8.914,0 -15.938,-6.4023 -18.446,-14.082 -0.605,-1.707 -0.937,-4.1953 -0.937,-6.4024 l 0,-45.5781 -13.731,0 0,55.125"
             id="path3150"
             style="fill:#231f20;fill-opacity:1;fill-rule:nonzero;stroke:none" /><path
             d="m 1058.7,78.5469 c 0,2.1758 -0.15,4.1953 -0.78,6.0703 -2.51,8.125 -9.06,14.6875 -19.21,14.6875 -13.13,0 -22.49,-11.0899 -22.49,-28.7188 0,-14.6875 7.65,-27.1797 22.34,-27.1797 8.58,0 16.24,5.3047 19.05,14.1993 0.77,2.207 1.09,4.8554 1.09,7.3437 l 0,13.5977 z m 13.75,-34.8281 c 0,-17.4883 -3.6,-27.9493 -10.78,-34.66802 C 1054.17,2.32422 1043.56,0 1034.03,0 c -9.05,0 -19.05,2.17578 -25.16,6.23828 l 3.45,10.60552 c 5,-3.2579 12.79,-6.0743 22.18,-6.0743 14.06,0 24.36,7.3438 24.36,26.543 l 0,8.2813 -0.31,0 c -4.08,-7.0391 -12.34,-12.6446 -24.05,-12.6446 -18.75,0 -32.17,15.9297 -32.17,37 0,25.6055 16.71,39.9728 34.19,39.9728 13.11,0 20.15,-6.699 23.58,-12.9572 l 0.31,0 0.46,11.2382 12.18,0 c -0.47,-5.305 -0.6,-11.3866 -0.6,-20.6053 l 0,-43.8789"
             id="path3152"
             style="fill:#231f20;fill-opacity:1;fill-rule:nonzero;stroke:none" /><path
             d="m 1164.88,130.234 c -8.59,0 -13.12,-7.179 -13.12,-15.304 0,-7.5 3.6,-13.282 7.96,-18.9066 10.79,6.1056 17.5,11.7306 17.5,20.6246 0,6.407 -3.59,13.586 -12.18,13.586 l -0.16,0 z m -2.81,-89.0231 c 9.05,0 16.56,4.0703 21.56,9.543 -6.26,6.6953 -17.97,19.668 -29.52,33.0938 -5.78,-3.5938 -13.59,-10.3008 -13.59,-21.3868 0,-12.0312 8.75,-21.25 21.4,-21.25 l 0.15,0 z m 38.1,-8.5742 c -2.96,2.9571 -5.77,5.918 -9.83,10.1367 -9.06,-8.2617 -19.06,-11.8476 -30.76,-11.8476 -20.46,0 -32.34,13.7304 -32.34,29.5039 0,14.3555 8.59,24.043 20.63,30.7617 l 0,0.4688 c -5.33,6.875 -8.92,14.5198 -8.92,22.0118 0,12.812 9.38,25.926 26.87,25.926 13.12,0 23.26,-8.582 23.26,-22.332 0,-11.086 -6.39,-19.8363 -23.1,-28.1176 l 0,-0.4492 c 8.9,-10.4844 18.89,-21.875 25.61,-29.375 4.83,7.3477 8.11,17.5 10.13,30.7656 l 12.51,0 c -2.82,-16.5429 -7.35,-29.6601 -15.16,-38.8906 5.63,-5.918 11.1,-11.875 17.34,-18.5625 l -16.24,0"
             id="path3154"
             style="fill:#231f20;fill-opacity:1;fill-rule:nonzero;stroke:none" /><path
             d="m 1284.65,32.6367 -26.71,105.2223 14.37,0 12.48,-53.2418 c 3.13,-13.2617 5.94,-26.2305 7.82,-36.375 l 0.31,0 c 1.72,10.4687 5,22.957 8.58,36.543 l 14.06,53.0738 14.22,0 12.81,-53.3863 c 2.96,-12.6485 5.77,-24.9922 7.33,-36.086 l 0.32,0 c 2.19,11.5625 5.14,23.2852 8.43,36.3985 l 13.88,53.0738 13.92,0 -29.84,-105.2223 -14.2,0 -13.28,54.6367 c -3.27,13.5856 -5.47,23.9066 -6.88,34.5116 l -0.3,0 c -1.72,-10.605 -4.21,-20.762 -8.13,-34.3553 l -14.99,-54.793 -14.2,0"
             id="path3156"
             style="fill:#231f20;fill-opacity:1;fill-rule:nonzero;stroke:none" /><path
             d="m 1444.56,77.9297 c 0.13,8.5625 -3.6,22.3123 -18.9,22.3123 -14.05,0 -19.99,-12.8123 -21.09,-22.3123 l 39.99,0 z m -40.13,-9.8555 c 0.3,-18.582 12.01,-26.2383 25.74,-26.2383 9.85,0 15.93,1.7383 20.93,3.7579 l 2.51,-9.6954 c -4.86,-2.1796 -13.28,-4.8359 -25.29,-4.8359 -23.12,0 -37.17,15.4687 -37.17,38.0977 0,22.9687 13.58,40.9178 35.59,40.9178 24.69,0 31.07,-21.7108 31.07,-35.5975 0,-2.8086 -0.14,-5 -0.47,-6.5508 l -52.91,0.1445"
             id="path3158"
             style="fill:#231f20;fill-opacity:1;fill-rule:nonzero;stroke:none" /><path
             d="m 1491.39,62.9102 c 0,-1.711 0.17,-3.4297 0.47,-4.9727 2.66,-9.5508 10.77,-16.1016 20.63,-16.1016 14.52,0 22.94,11.7188 22.94,29.0508 0,15.3047 -7.81,28.2539 -22.48,28.2539 -9.38,0 -18.11,-6.5429 -20.77,-16.8437 -0.47,-1.7227 -0.79,-3.5977 -0.79,-5.793 l 0,-13.5937 z m -13.73,80.5858 13.73,0 0,-47.3046 0.32,0 c 4.85,8.4176 13.6,13.7306 25.78,13.7306 18.73,0 31.84,-15.6173 31.84,-38.3986 0,-27.1796 -17.18,-40.5976 -34.03,-40.5976 -10.93,0 -19.52,4.2031 -25.31,14.2031 l -0.31,0 -0.78,-12.4922 -11.87,0 c 0.47,5.1445 0.63,12.793 0.63,19.5 l 0,91.3593"
             id="path3160"
             style="fill:#231f20;fill-opacity:1;fill-rule:nonzero;stroke:none" /><path
             d="m 1609.15,71.1992 c -15,0.3242 -32.02,-2.332 -32.02,-17.0195 0,-9.0508 5.92,-13.1172 12.8,-13.1172 10,0 16.4,6.2422 18.58,12.6484 0.47,1.4063 0.64,2.961 0.64,4.3633 l 0,13.125 z m 13.41,-20.4453 c 0,-6.5664 0.32,-12.9727 1.11,-18.1172 l -12.35,0 -1.24,9.5117 -0.47,0 c -4.06,-5.9179 -12.34,-11.2226 -23.11,-11.2226 -15.3,0 -23.12,10.7734 -23.12,21.7109 0,18.25 16.24,28.25 45.43,28.086 l 0,1.5742 c 0,6.2383 -1.71,17.625 -17.17,17.4765 -7.18,0 -14.51,-2.0195 -19.83,-5.6015 l -3.12,9.1951 c 6.25,3.899 15.47,6.555 24.99,6.555 23.26,0 28.88,-15.7501 28.88,-30.9103 l 0,-28.2578"
             id="path3162"
             style="fill:#231f20;fill-opacity:1;fill-rule:nonzero;stroke:none" /><path
             d="m 1701.27,35.293 c -3.59,-1.7188 -11.57,-4.3672 -21.7,-4.3672 -22.81,0 -37.64,15.4414 -37.64,38.7226 0,23.25 15.93,40.2736 40.59,40.2736 8.13,0 15.31,-2.024 19.06,-4.043 l -3.12,-10.4884 c -3.29,1.7383 -8.45,3.5938 -15.94,3.5938 -17.34,0 -26.69,-12.9375 -26.69,-28.7305 0,-17.4805 11.24,-28.25 26.23,-28.25 7.81,0 12.95,1.8516 16.87,3.5899 l 2.34,-10.3008"
             id="path3164"
             style="fill:#231f20;fill-opacity:1;fill-rule:nonzero;stroke:none" /><path
             d="m 1774.04,35.293 c -3.59,-1.7188 -11.56,-4.3672 -21.7,-4.3672 -22.81,0 -37.64,15.4414 -37.64,38.7226 0,23.25 15.93,40.2736 40.6,40.2736 8.11,0 15.29,-2.024 19.05,-4.043 l -3.12,-10.4884 c -3.29,1.7383 -8.45,3.5938 -15.93,3.5938 -17.35,0 -26.71,-12.9375 -26.71,-28.7305 0,-17.4805 11.24,-28.25 26.24,-28.25 7.81,0 12.95,1.8516 16.86,3.5899 l 2.35,-10.3008"
             id="path3166"
             style="fill:#231f20;fill-opacity:1;fill-rule:nonzero;stroke:none" /><path
             d="m 1839.94,77.9297 c 0.14,8.5625 -3.6,22.3123 -18.89,22.3123 -14.06,0 -20,-12.8123 -21.09,-22.3123 l 39.98,0 z m -40.15,-9.8555 c 0.32,-18.582 12.03,-26.2383 25.78,-26.2383 9.84,0 15.92,1.7383 20.92,3.7579 l 2.51,-9.6954 c -4.86,-2.1796 -13.28,-4.8359 -25.3,-4.8359 -23.12,0 -37.17,15.4687 -37.17,38.0977 0,22.9687 13.58,40.9178 35.59,40.9178 24.69,0 31.08,-21.7108 31.08,-35.5975 0,-2.8086 -0.15,-5 -0.47,-6.5508 l -52.94,0.1445"
             id="path3168"
             style="fill:#231f20;fill-opacity:1;fill-rule:nonzero;stroke:none" /><path
             d="m 1871.17,46.5312 c 4.23,-2.5078 11.4,-5.3203 18.26,-5.3203 9.85,0 14.52,4.8516 14.52,11.2579 0,6.5429 -3.9,10.1367 -13.89,13.8867 -13.73,5 -20.13,12.3437 -20.13,21.4062 0,12.1602 9.99,22.1603 26.07,22.1603 7.65,0 14.36,-2.024 18.42,-4.68 l -3.28,-9.8514 c -2.96,1.7383 -8.43,4.3828 -15.45,4.3828 -8.12,0 -12.5,-4.6679 -12.5,-10.3007 0,-6.4063 4.38,-9.2188 14.22,-12.9688 12.95,-4.832 19.82,-11.3867 19.82,-22.793 0,-13.4375 -10.46,-22.7851 -28.1,-22.7851 -8.27,0 -15.94,2.1601 -21.24,5.3047 l 3.28,10.3007"
             id="path3170"
             style="fill:#231f20;fill-opacity:1;fill-rule:nonzero;stroke:none" /><path
             d="m 1935.82,46.5312 c 4.22,-2.5078 11.4,-5.3203 18.28,-5.3203 9.83,0 14.51,4.8516 14.51,11.2579 0,6.5429 -3.91,10.1367 -13.9,13.8867 -13.73,5 -20.13,12.3437 -20.13,21.4062 0,12.1602 10,22.1603 26.07,22.1603 7.65,0 14.35,-2.024 18.42,-4.68 l -3.28,-9.8514 c -2.96,1.7383 -8.43,4.3828 -15.45,4.3828 -8.12,0 -12.5,-4.6679 -12.5,-10.3007 0,-6.4063 4.38,-9.2188 14.22,-12.9688 12.94,-4.832 19.82,-11.3867 19.82,-22.793 0,-13.4375 -10.46,-22.7851 -28.11,-22.7851 -8.28,0 -15.93,2.1601 -21.24,5.3047 l 3.29,10.3007"
             id="path3172"
             style="fill:#231f20;fill-opacity:1;fill-rule:nonzero;stroke:none" /></g></g></g></g></svg>
